#!OML:ASF Y:\EmotionMaleHayes\Project 1\Capture day 1\Session 1\Male1.ASF
:FULLY-SPECIFIED
:DEGREES
1737
root 1.80878 16.8142 13.5787 351.163 -58.8037 727.7
lowerback 3.90822 4.70695 -2.9123
upperback 0.859643 6.07739 -2.8711
thorax -1.28764 3.02764 -1.62768
lowerneck -16.4837 -12.1293 -8.55849
upperneck 18.04 -17.5436 11.9847
head 10.3444 -7.5742 2.91456
rclavicle 5.77594e-014 -2.10712e-014
rhumerus -30.5998 10.2924 -91.1507
rradius 35.63
rwrist 3.15143
rhand -12.2206 -32.0617
rfingers 7.12502
rthumb 13.8444 -61.5809
lclavicle 5.77594e-014 -2.10712e-014
lhumerus -39.2675 4.91336 72.6605
lradius 26.4946
lwrist -12.4083
lhand -13.5499 -20.538
lfingers 7.12502
lthumb 12.5631 9.0643
rfemur 19.8275 4.86608 19.2509
rtibia 36.1915
rfoot 2.53015 -2.75678
rtoes 23.0798
lfemur -8.87109 4.24904 -21.691
ltibia 15.7289
lfoot -4.88652 8.70253
ltoes 4.78527
1738
root 1.71628 16.8321 13.667 350.763 -59.1004 728.037
lowerback 4.00331 4.54234 -3.1835
upperback 0.85625 5.84 -2.85855
thorax -1.37376 2.90933 -1.46308
lowerneck -16.8043 -12.1766 -8.42329
upperneck 18.4824 -17.5953 11.6087
head 10.5133 -7.59668 2.73709
rclavicle -1.17034e-014 -2.78299e-015
rhumerus -31.0503 9.92162 -91.0185
rradius 34.788
rwrist 3.57015
rhand -12.1113 -32.0475
rfingers 7.12502
rthumb 13.9497 -61.5595
lclavicle -1.17034e-014 -2.78299e-015
lhumerus -38.628 4.73942 72.9501
lradius 27.0083
lwrist -11.9655
lhand -13.9449 -20.9454
lfingers 7.12502
lthumb 12.1822 8.67983
rfemur 18.9574 4.32362 18.5775
rtibia 37.9099
rfoot 3.7202 -3.56304
rtoes 24.606
lfemur -8.04243 4.22104 -21.8895
ltibia 15.3806
lfoot -5.37112 8.89138
ltoes 5.09664
1739
root 1.62747 16.851 13.7526 349.863 -59.2346 728.911
lowerback 4.22679 4.37651 -3.70348
upperback 0.876461 5.57895 -2.91892
thorax -1.52111 2.77929 -1.24424
lowerneck -16.0626 -11.8208 -8.57795
upperneck 17.6501 -17.0944 12.0749
head 10.0887 -7.39692 3.05411
rclavicle 9.01861e-014 -7.95139e-015
rhumerus -31.5301 9.4211 -90.7599
rradius 34.0911
rwrist 4.15522
rhand -11.5474 -32.1884
rfingers 7.12502
rthumb 14.4931 -61.6623
lclavicle 9.01861e-014 -7.95139e-015
lhumerus -37.8429 4.63474 73.2447
lradius 27.3597
lwrist -11.7042
lhand -14.5498 -20.9081
lfingers 7.12502
lthumb 11.599 8.75089
rfemur 17.896 3.52596 17.4327
rtibia 39.8379
rfoot 4.62878 -4.24541
rtoes 24.7193
lfemur -7.21706 4.1398 -22.4614
ltibia 15.0945
lfoot -5.84819 9.00281
ltoes 5.64546
1740
root 1.53786 16.8676 13.8342 348.752 -59.3239 730.006
lowerback 4.39301 4.24521 -4.38304
upperback 0.951476 5.35743 -3.02354
thorax -1.58688 2.66796 -0.976336
lowerneck -16.1872 -11.8905 -8.79594
upperneck 17.6789 -17.1982 12.3136
head 10.1799 -7.42779 3.14172
rclavicle -2.63265e-014 2.66371e-014
rhumerus -32.0193 8.84738 -90.4435
rradius 33.5252
rwrist 4.53521
rhand -11.3068 -32.2727
rfingers 7.12502
rthumb 14.7249 -61.7297
lclavicle -2.63265e-014 2.66371e-014
lhumerus -36.8956 4.3 73.6374
lradius 27.6471
lwrist -11.1521
lhand -15.294 -20.681
lfingers 7.12502
lthumb 10.8812 9.01711
rfemur 16.7748 2.50736 16.0319
rtibia 41.7606
rfoot 5.19075 -4.79743
rtoes 23.5795
lfemur -6.32235 4.20774 -23.1456
ltibia 14.6902
lfoot -6.21763 9.02752
ltoes 6.20864
1741
root 1.44472 16.8817 13.9142 347.381 -59.4277 731.371
lowerback 4.42309 4.11253 -5.31761
upperback 1.07778 5.13219 -3.10543
thorax -1.54343 2.55276 -0.531389
lowerneck -16.2054 -11.7881 -8.60646
upperneck 17.8381 -17.0576 12.0525
head 10.1778 -7.37182 3.04879
rclavicle -1.33434e-014 5.96354e-014
rhumerus -32.5312 8.53922 -90.1167
rradius 33.0355
rwrist 4.69675
rhand -11.5444 -32.3272
rfingers 7.12502
rthumb 14.496 -61.8008
lclavicle -1.33434e-014 5.96354e-014
lhumerus -35.941 4.13632 74.0374
lradius 28.027
lwrist -10.6105
lhand -15.8563 -20.1136
lfingers 7.12502
lthumb 10.3388 9.61224
rfemur 15.7654 1.54777 14.5383
rtibia 43.5024
rfoot 5.37892 -5.28928
rtoes 22.9886
lfemur -5.37324 4.38595 -23.9688
ltibia 14.2324
lfoot -6.51092 9.02866
ltoes 6.07052
